<svg width="31" height="30" viewBox="0 0 31 30" fill="none" xmlns="http://www.w3.org/2000/svg">
<path d="M24.7505 18.6624C23.5299 19.88 21.9999 20.7412 20.3258 21.1531C18.6516 21.5651 16.8968 21.5121 15.2505 20.9999L9.363 26.8749C8.938 27.3124 8.1005 27.5749 7.5005 27.4874L4.7755 27.1124C3.8755 26.9874 3.038 26.1374 2.9005 25.2374L2.5255 22.5124C2.438 21.9124 2.7255 21.0749 3.138 20.6499L9.013 14.7749C8.013 11.5249 8.788 7.8374 11.363 5.2749C15.0505 1.5874 21.038 1.5874 24.738 5.2749C28.438 8.9624 28.438 14.9749 24.7505 18.6624V18.6624Z" stroke="black" stroke-width="1.5" stroke-miterlimit="10" stroke-linecap="round" stroke-linejoin="round"/>
<path opacity="0.4" d="M8.62646 21.8601L11.5015 24.7351" stroke="black" stroke-width="1.5" stroke-miterlimit="10" stroke-linecap="round" stroke-linejoin="round"/>
<path opacity="0.4" d="M18.1392 13.75C18.6364 13.75 19.1134 13.5525 19.465 13.2008C19.8166 12.8492 20.0142 12.3723 20.0142 11.875C20.0142 11.3777 19.8166 10.9008 19.465 10.5492C19.1134 10.1975 18.6364 10 18.1392 10C17.6419 10 17.165 10.1975 16.8133 10.5492C16.4617 10.9008 16.2642 11.3777 16.2642 11.875C16.2642 12.3723 16.4617 12.8492 16.8133 13.2008C17.165 13.5525 17.6419 13.75 18.1392 13.75Z" stroke="black" stroke-width="1.5" stroke-linecap="round" stroke-linejoin="round"/>
</svg>
