<?xml version="1.0" encoding="UTF-8"?><svg id="Calque_6" xmlns="http://www.w3.org/2000/svg" viewBox="0 0 1051.91 310.51"><defs><style>.cls-1{fill:#fff;}</style></defs><path class="cls-1" d="m611.84,52c-15.85-25.51-44.12-42.49-76.37-42.49-20.37,0-39.14,6.77-54.21,18.19V9.51h-49.02v44.87l49.05,43.48c.8-23.64,20.22-42.56,44.06-42.56,15.04,0,28.32,7.53,36.27,19.03,4.93,7.11,7.81,15.75,7.81,25.05,0,29.12-29.69,50.34-57.36,41.63-11.19-3.53-18.84-11.23-27.33-18.76-7.39-6.56-14.78-13.13-22.17-19.69-14.25-12.65-28.51-25.3-42.76-37.95-1.2-1.07-2.4-2.13-3.6-3.2l-.15-.12V9.51h-49.02v18.53c-.16-.13-.31-.25-.47-.36-15.06-11.41-33.83-18.17-54.18-18.17-39.63,0-73.27,25.66-85.22,61.26-3.02,8.99-4.65,18.61-4.65,28.61,0,49.64,40.24,89.88,89.87,89.88,20.56,0,39.51-6.9,54.65-18.53v18.53h49.02v-44.9l-49.05-43.49c-.78,23.66-20.21,42.6-44.05,42.6s-44.09-19.74-44.09-44.09c0-8.49,2.54-16.32,6.82-22.94,11.05-17.12,33.72-26.13,54.04-17.55,7.95,3.37,13.75,8.78,20.04,14.46,6.69,6.05,13.68,11.93,20.44,17.94,14.84,13.18,29.68,26.35,44.51,39.53,2.48,2.2,4.96,4.4,7.44,6.6l.08.07v51.77h49.02v-18.2c.1.08.2.16.3.23,15.02,11.29,33.68,17.97,53.91,17.97,49.64,0,89.87-40.24,89.87-89.88,0-17.39-4.94-33.63-13.5-47.38Z"/><path class="cls-1" d="m741.94,9.52c-20.36,0-39.14,6.77-54.21,18.19V9.52h-49.02v288h49.02v-126.45c15.07,11.43,33.85,18.2,54.21,18.2,49.63,0,89.87-40.24,89.87-89.88s-40.24-89.87-89.87-89.87Zm-9.86,133.96c-24.35,0-44.09-19.74-44.09-44.09s19.74-44.08,44.09-44.08,44.08,19.74,44.08,44.08-19.74,44.09-44.08,44.09Z"/><path class="cls-1" d="m948.4,9.52c-20.36,0-39.14,6.77-54.21,18.19V9.52h-49.02v288h49.02v-126.45c15.07,11.43,33.85,18.2,54.21,18.2,49.63,0,89.87-40.24,89.87-89.88s-40.24-89.87-89.87-89.87Zm-9.86,133.96c-24.35,0-44.09-19.74-44.09-44.09s19.74-44.08,44.09-44.08,44.08,19.74,44.08,44.08-19.74,44.09-44.08,44.09Z"/><path class="cls-1" d="m65.09,189.52H16.07V9.52h49.02v18.19c13-9.85,28.75-16.24,45.9-17.81,53.93-4.94,98.18,36.73,98.18,90.89v88.48s-55.65,0-55.65,0c0-22.62.83-45.4,0-68-.61-16.58,1.54-33.99-9.05-48.14-8.78-11.74-23.04-18.62-37.72-17.74-12.52.75-24.31,6.98-32.04,16.85-10.69,13.65-9.37,31.33-9.42,47.65-.04,14-.08,27.99-.12,41.99,0,1.58-.07,27.65-.08,27.65Z"/></svg>