<svg width="51" height="80" viewBox="0 0 51 80" fill="none" xmlns="http://www.w3.org/2000/svg">
<path d="M3.40625 66.3906H7.125C7.64583 66.3906 8.10677 66.4635 8.50781 66.6094C8.90885 66.75 9.24219 66.9531 9.50781 67.2188C9.77865 67.4792 9.98177 67.7969 10.1172 68.1719C10.2578 68.5417 10.3281 68.9557 10.3281 69.4141C10.3281 69.7474 10.2865 70.0651 10.2031 70.3672C10.1198 70.6641 9.99219 70.9401 9.82031 71.1953C9.65365 71.4453 9.4375 71.6693 9.17188 71.8672C8.91146 72.0651 8.60156 72.2266 8.24219 72.3516C8.4401 72.7318 8.65104 73.1172 8.875 73.5078C9.09896 73.8984 9.32292 74.2891 9.54688 74.6797C9.77604 75.0703 10.0026 75.4609 10.2266 75.8516C10.4505 76.2422 10.6615 76.625 10.8594 77H8.95312L6.63281 72.6172H6.52344C6.3724 72.6172 6.21354 72.612 6.04688 72.6016C5.88542 72.5859 5.73438 72.5703 5.59375 72.5547C5.42708 72.5339 5.26562 72.5104 5.10938 72.4844V77H3.40625V66.3906ZM5.10938 71.2266C5.15625 71.2318 5.23177 71.2396 5.33594 71.25C5.44531 71.2552 5.5651 71.2604 5.69531 71.2656C5.83073 71.2708 5.97396 71.276 6.125 71.2812C6.28125 71.2812 6.42969 71.2812 6.57031 71.2812C7.23177 71.2812 7.72396 71.1328 8.04688 70.8359C8.375 70.5339 8.53906 70.0703 8.53906 69.4453C8.53906 68.8984 8.39062 68.4792 8.09375 68.1875C7.80208 67.8958 7.38542 67.75 6.84375 67.75H5.10938V71.2266ZM11.6797 73.0859C11.6797 72.3359 11.7708 71.6901 11.9531 71.1484C12.1354 70.6068 12.3906 70.1615 12.7188 69.8125C13.0469 69.4635 13.4375 69.2083 13.8906 69.0469C14.349 68.8802 14.8516 68.7969 15.3984 68.7969C15.9036 68.7969 16.3542 68.8828 16.75 69.0547C17.151 69.2214 17.4896 69.4583 17.7656 69.7656C18.0417 70.0729 18.2526 70.4401 18.3984 70.8672C18.5443 71.2943 18.6172 71.7656 18.6172 72.2812C18.6172 72.4583 18.6094 72.6224 18.5938 72.7734C18.5781 72.9245 18.5599 73.0547 18.5391 73.1641C18.5182 73.2943 18.4948 73.4115 18.4688 73.5156L13.3438 73.4922C13.349 73.9557 13.3984 74.3411 13.4922 74.6484C13.5859 74.9505 13.724 75.1901 13.9062 75.3672C14.0938 75.5443 14.3281 75.6693 14.6094 75.7422C14.8906 75.8099 15.224 75.8438 15.6094 75.8438C15.9375 75.8438 16.2318 75.8229 16.4922 75.7812C16.7526 75.7396 16.974 75.6901 17.1562 75.6328C17.3646 75.5703 17.5521 75.4974 17.7188 75.4141C17.7969 75.5964 17.8568 75.7656 17.8984 75.9219C17.9453 76.0781 17.9792 76.2135 18 76.3281C18.0208 76.4635 18.0365 76.5833 18.0469 76.6875C17.875 76.776 17.6667 76.8542 17.4219 76.9219C17.2135 76.9792 16.9583 77.0312 16.6562 77.0781C16.3542 77.1302 16.0052 77.1562 15.6094 77.1562C14.9844 77.1562 14.4271 77.0859 13.9375 76.9453C13.4531 76.8047 13.0417 76.5755 12.7031 76.2578C12.3698 75.9349 12.1146 75.5156 11.9375 75C11.7656 74.4792 11.6797 73.8411 11.6797 73.0859ZM16.9453 72.3516V72.0859C16.9453 71.7578 16.9036 71.4688 16.8203 71.2188C16.7422 70.9635 16.6328 70.75 16.4922 70.5781C16.3516 70.4062 16.1849 70.276 15.9922 70.1875C15.7995 70.099 15.5911 70.0547 15.3672 70.0547C15.0391 70.0547 14.75 70.099 14.5 70.1875C14.25 70.2708 14.0391 70.4062 13.8672 70.5938C13.7005 70.776 13.5755 71.013 13.4922 71.3047C13.4089 71.5964 13.3672 71.9453 13.3672 72.3516H16.9453ZM20.6562 70.2266H19.6328C19.6276 70.1693 19.6224 70.1068 19.6172 70.0391C19.612 69.9818 19.6068 69.9141 19.6016 69.8359C19.6016 69.7578 19.6016 69.6719 19.6016 69.5781C19.6016 69.4844 19.6042 69.3984 19.6094 69.3203C19.6146 69.237 19.6224 69.1354 19.6328 69.0156H20.6562V67.7734L21.5547 66.7578H22.25V69.0156H24.4609C24.4714 69.0677 24.4792 69.1302 24.4844 69.2031C24.4948 69.276 24.5 69.3464 24.5 69.4141C24.5 69.5339 24.487 69.6432 24.4609 69.7422C24.4401 69.8411 24.4167 69.9271 24.3906 70C24.3594 70.0833 24.3229 70.1589 24.2812 70.2266H22.25V74.7578C22.25 75.138 22.3125 75.4141 22.4375 75.5859C22.5677 75.7578 22.7734 75.8438 23.0547 75.8438C23.1745 75.8438 23.2995 75.8307 23.4297 75.8047C23.5651 75.7734 23.6927 75.737 23.8125 75.6953C23.9479 75.6484 24.0859 75.5964 24.2266 75.5391C24.3307 75.6745 24.4115 75.8073 24.4688 75.9375C24.5312 76.0677 24.5755 76.1849 24.6016 76.2891C24.6328 76.4089 24.651 76.5208 24.6562 76.625C24.5104 76.724 24.3464 76.8125 24.1641 76.8906C24.0026 76.9583 23.8099 77.0182 23.5859 77.0703C23.362 77.1276 23.1042 77.1562 22.8125 77.1562C22.4062 77.1562 22.0651 77.1042 21.7891 77C21.5182 76.901 21.2969 76.7526 21.125 76.5547C20.9583 76.3516 20.8385 76.1016 20.7656 75.8047C20.6927 75.5026 20.6562 75.1562 20.6562 74.7656V70.2266ZM25.6406 73.0078C25.6406 72.3203 25.7318 71.7135 25.9141 71.1875C26.1016 70.6615 26.362 70.2214 26.6953 69.8672C27.0339 69.513 27.4349 69.2448 27.8984 69.0625C28.3672 68.8802 28.8828 68.7891 29.4453 68.7891C30.0234 68.7891 30.5443 68.875 31.0078 69.0469C31.4714 69.2135 31.8646 69.4688 32.1875 69.8125C32.5104 70.1562 32.7578 70.5859 32.9297 71.1016C33.1016 71.612 33.1875 72.2109 33.1875 72.8984C33.1875 73.5859 33.099 74.1953 32.9219 74.7266C32.75 75.2578 32.5 75.7031 32.1719 76.0625C31.849 76.4219 31.4557 76.6953 30.9922 76.8828C30.5339 77.0651 30.0182 77.1562 29.4453 77.1562C28.8516 77.1562 28.3177 77.0703 27.8438 76.8984C27.375 76.7214 26.9766 76.4609 26.6484 76.1172C26.3255 75.7682 26.0755 75.3359 25.8984 74.8203C25.7266 74.2995 25.6406 73.6953 25.6406 73.0078ZM29.4453 75.8672C29.7891 75.8672 30.0859 75.7943 30.3359 75.6484C30.5911 75.4974 30.7995 75.2917 30.9609 75.0312C31.1224 74.7656 31.2422 74.4531 31.3203 74.0938C31.3984 73.7292 31.4375 73.3307 31.4375 72.8984C31.4375 71.9661 31.2786 71.2552 30.9609 70.7656C30.6432 70.276 30.138 70.0312 29.4453 70.0312C29.0964 70.0312 28.7917 70.1068 28.5312 70.2578C28.276 70.4036 28.0625 70.6094 27.8906 70.875C27.724 71.1406 27.599 71.4557 27.5156 71.8203C27.4323 72.1849 27.3906 72.5807 27.3906 73.0078C27.3906 73.9505 27.5573 74.6641 27.8906 75.1484C28.2292 75.6276 28.7474 75.8672 29.4453 75.8672ZM34.6562 69.0156H36.3281V74.2344C36.3281 74.7917 36.4375 75.2057 36.6562 75.4766C36.875 75.7422 37.2422 75.875 37.7578 75.875C38.0078 75.875 38.2344 75.8542 38.4375 75.8125C38.6406 75.7708 38.8177 75.7214 38.9688 75.6641C39.1406 75.6016 39.2943 75.5286 39.4297 75.4453V69.0156H41.1094V75.7109L41.8047 76.5078V77H40.2969L39.6797 76.3828H39.3828C39.3411 76.4141 39.263 76.4714 39.1484 76.5547C39.0339 76.638 38.8854 76.7266 38.7031 76.8203C38.526 76.9089 38.3203 76.987 38.0859 77.0547C37.8516 77.1224 37.5964 77.1562 37.3203 77.1562C36.8828 77.1562 36.4974 77.0911 36.1641 76.9609C35.8307 76.8307 35.5521 76.6458 35.3281 76.4062C35.1042 76.1615 34.9349 75.8698 34.8203 75.5312C34.7109 75.1875 34.6562 74.8047 34.6562 74.3828V69.0156ZM44.4062 68.9297L45.2109 69.7734C45.2682 69.6432 45.3411 69.5208 45.4297 69.4062C45.5234 69.2865 45.6302 69.1823 45.75 69.0938C45.875 69.0052 46.013 68.9349 46.1641 68.8828C46.3203 68.8307 46.4896 68.8047 46.6719 68.8047C46.8229 68.8047 46.9688 68.8177 47.1094 68.8438C47.25 68.8646 47.4036 68.9036 47.5703 68.9609C47.5755 68.9714 47.5807 69.013 47.5859 69.0859C47.5964 69.1589 47.6016 69.25 47.6016 69.3594C47.6016 69.4427 47.5964 69.5417 47.5859 69.6562C47.5755 69.7656 47.5573 69.8802 47.5312 70C47.5104 70.1146 47.4766 70.2292 47.4297 70.3438C47.388 70.4583 47.3333 70.5573 47.2656 70.6406L47.1172 70.6797C47.013 70.6276 46.8958 70.5833 46.7656 70.5469C46.6406 70.5104 46.5104 70.4922 46.375 70.4922C46.1667 70.4922 45.9922 70.5078 45.8516 70.5391C45.7109 70.5651 45.5964 70.5938 45.5078 70.625C45.4036 70.6615 45.3203 70.7031 45.2578 70.75V77H43.5859V70.4453L42.9688 69.8125V68.9297H44.4062Z" fill="#5F5F5F"/>
<circle cx="26" cy="25" r="24.5" stroke="#5C5C5C"/>
<path d="M25.542 14.4282C25.8349 14.7212 25.9995 15.1186 25.9995 15.5329C25.9995 15.9472 25.8349 16.3446 25.542 16.6376L18.8341 23.3455H36.9375C37.3519 23.3455 37.7493 23.5101 38.0423 23.8031C38.3354 24.0962 38.5 24.4936 38.5 24.908C38.5 25.3224 38.3354 25.7199 38.0423 26.0129C37.7493 26.3059 37.3519 26.4705 36.9375 26.4705H18.8341L25.542 33.1784C25.8266 33.4731 25.9841 33.8678 25.9806 34.2775C25.977 34.6872 25.8127 35.0791 25.523 35.3688C25.2333 35.6585 24.8414 35.8228 24.4317 35.8264C24.022 35.83 23.6273 35.6725 23.3326 35.3878L13.9575 26.0127C13.6646 25.7197 13.5 25.3223 13.5 24.908C13.5 24.4937 13.6646 24.0963 13.9575 23.8033L23.3326 14.4282C23.6256 14.1353 24.023 13.9707 24.4373 13.9707C24.8516 13.9707 25.249 14.1353 25.542 14.4282Z" fill="#7D7D7D"/>
</svg>
